<?xml version="1.0"?>
<svg xmlns="http://www.w3.org/2000/svg" xmlns:xlink="http://www.w3.org/1999/xlink" xmlns:svgjs="http://svgjs.com/svgjs" version="1.1" width="512" height="512" x="0" y="0" viewBox="0 0 24 24" style="enable-background:new 0 0 512 512" xml:space="preserve"><g><script>(function(){window['_docs_annotate_canvas_by_ext']='kohfgcgbkjodfcfkcackpagifgbcmimk';})();</script><g xmlns="http://www.w3.org/2000/svg" id="_01_align_center" data-name="01 align center"><path d="M21,12.424V11A9,9,0,0,0,3,11v1.424A5,5,0,0,0,5,22H7V12H5V11a7,7,0,0,1,14,0v1H17V22h2a5,5,0,0,0,2-9.576ZM5,20a3,3,0,0,1,0-6Zm14,0V14a3,3,0,0,1,0,6Z" fill="#303030" data-original="#000000"/></g></g></svg>
